<?xml version="1.0" standalone="no"?>
<!DOCTYPE svg PUBLIC "-//W3C//DTD SVG 20010904//EN"
 "http://www.w3.org/TR/2001/REC-SVG-20010904/DTD/svg10.dtd">
<svg version="1.0" xmlns="http://www.w3.org/2000/svg"
 width="1000.000000pt" height="1000.000000pt" viewBox="0 0 1000.000000 1000.000000"
 preserveAspectRatio="xMidYMid meet">
<metadata>
Created by potrace 1.14, written by Peter Selinger 2001-2017
</metadata>
<g transform="translate(0.000000,1000.000000) scale(0.100000,-0.100000)"
fill="#000000" stroke="none">
<path d="M7537 9623 c-2 -1 -186 -5 -994 -19 -171 -3 -354 -7 -405 -8 -67 -2
-99 1 -114 11 -20 13 -23 11 -43 -20 -12 -19 -21 -39 -21 -46 0 -6 -5 -11 -11
-11 -5 0 -8 -4 -5 -9 4 -5 2 -11 -2 -13 -5 -1 -22 -28 -38 -58 -17 -30 -43
-77 -59 -105 -15 -27 -68 -122 -118 -210 -49 -88 -98 -172 -108 -187 -11 -15
-19 -30 -19 -33 0 -5 -55 -102 -105 -187 -5 -9 -23 -43 -40 -75 -16 -32 -33
-60 -36 -63 -3 -3 -25 -41 -50 -85 -24 -44 -53 -96 -64 -116 -11 -19 -42 -75
-69 -125 -27 -49 -52 -91 -56 -94 -3 -3 -11 -16 -17 -30 -7 -14 -30 -56 -53
-95 -22 -38 -43 -78 -46 -87 -4 -10 -10 -18 -15 -18 -5 0 -8 -3 -7 -7 1 -5
-16 -39 -38 -78 -22 -38 -46 -82 -54 -97 -7 -16 -17 -28 -22 -28 -4 0 -8 -7
-8 -15 0 -8 -17 -43 -38 -77 -21 -35 -58 -99 -83 -143 -24 -44 -49 -89 -56
-100 -7 -11 -16 -27 -20 -35 -4 -8 -29 -52 -55 -98 -26 -46 -48 -85 -48 -87 0
-2 -19 -36 -43 -77 -24 -40 -57 -98 -74 -128 -16 -30 -40 -73 -53 -95 -12 -22
-43 -76 -68 -120 -25 -44 -55 -98 -68 -120 -13 -22 -27 -47 -31 -55 -7 -15
-52 -95 -105 -185 -16 -27 -36 -66 -46 -85 -9 -19 -20 -37 -23 -40 -3 -3 -21
-34 -41 -70 -19 -36 -49 -89 -66 -118 -18 -29 -32 -57 -32 -62 0 -5 -6 -15
-12 -22 -7 -7 -20 -26 -28 -43 -8 -16 -19 -33 -23 -36 -5 -3 -9 -12 -11 -20
-1 -8 -9 -25 -18 -39 -45 -72 -243 -426 -240 -432 1 -5 -3 -8 -8 -8 -6 0 -10
-4 -10 -10 0 -5 -17 -38 -38 -72 -20 -35 -46 -81 -57 -103 -11 -22 -22 -42
-26 -45 -3 -3 -30 -50 -61 -105 -31 -55 -110 -196 -177 -314 -66 -117 -121
-218 -121 -222 0 -5 -3 -9 -7 -9 -5 0 -17 -20 -28 -45 -11 -25 -23 -45 -27
-45 -5 0 -8 -4 -8 -9 0 -8 -109 -208 -151 -276 -11 -16 -22 -37 -26 -45 -4 -8
-19 -35 -33 -60 -15 -25 -46 -81 -70 -125 -24 -44 -46 -82 -49 -85 -3 -3 -15
-23 -26 -45 -10 -22 -34 -63 -51 -92 -18 -28 -30 -54 -27 -57 4 -3 1 -6 -5 -6
-7 0 -12 -6 -12 -13 0 -7 -8 -22 -17 -33 -10 -11 -19 -26 -21 -34 -2 -8 -10
-20 -18 -27 -9 -6 -15 -13 -14 -15 3 -7 -14 -43 -22 -49 -8 -5 -11 -13 -17
-49 -1 -3 -6 2 -12 10 -8 12 -9 11 -4 -6 4 -15 0 -24 -10 -28 -9 -3 -13 -10
-10 -16 3 -5 2 -10 -3 -10 -5 0 -9 -6 -9 -12 0 -7 -16 -39 -37 -70 -20 -32
-34 -58 -31 -58 3 0 0 -6 -7 -14 -7 -8 -16 -12 -20 -9 -4 2 -5 -3 -2 -11 3 -9
1 -16 -5 -16 -6 0 -11 -7 -11 -15 0 -9 -40 -86 -89 -173 -49 -86 -98 -174
-108 -194 -10 -21 -24 -38 -31 -38 -7 0 -10 -4 -7 -10 6 -10 -34 -92 -47 -98
-5 -2 -8 -7 -8 -12 0 -5 -24 -51 -53 -102 -29 -52 -57 -101 -60 -109 -4 -8
-15 -27 -25 -44 -21 -34 -58 -99 -110 -195 -20 -36 -40 -66 -44 -68 -4 -2 -8
-8 -8 -12 0 -9 -55 -107 -88 -160 -9 -14 -17 -27 -17 -30 -4 -18 -40 -78 -45
-75 -4 2 -7 -2 -7 -9 0 -7 -24 -55 -53 -107 -29 -52 -67 -119 -83 -149 -72
-131 -63 -124 -173 -144 -147 -27 -402 -92 -517 -132 -188 -65 -316 -139 -376
-217 -21 -27 -25 -91 -7 -125 38 -73 153 -153 291 -203 28 -9 74 -27 103 -38
29 -10 54 -19 55 -19 1 0 22 -6 47 -13 25 -7 50 -13 55 -15 6 -1 37 -9 70 -18
33 -9 71 -19 85 -21 49 -9 72 -14 88 -19 9 -3 31 -8 47 -11 17 -2 41 -7 55
-10 25 -5 61 -12 115 -21 33 -6 111 -23 172 -38 41 -11 211 -46 247 -52 37 -5
48 -7 106 -18 27 -6 84 -14 139 -22 19 -2 46 -6 60 -9 14 -2 46 -7 71 -10 25
-3 56 -7 70 -10 22 -4 58 -8 180 -20 14 -1 45 -5 70 -9 25 -3 77 -8 115 -11
39 -4 88 -8 110 -10 62 -7 154 -15 225 -20 36 -2 101 -7 145 -10 44 -3 105 -8
135 -10 30 -2 114 -7 185 -11 72 -3 157 -7 190 -9 482 -27 1774 -27 2260 0 33
2 121 6 195 10 74 3 151 8 170 10 19 2 100 6 180 10 362 16 539 27 685 40 33
3 85 7 115 10 106 9 316 31 380 40 14 2 50 6 80 10 30 4 136 20 235 36 662
107 1106 257 1258 424 54 59 57 65 64 120 9 79 -42 158 -152 235 -35 24 -197
109 -210 109 -3 1 -22 8 -43 17 -20 9 -41 17 -47 18 -5 1 -16 5 -22 9 -7 5
-13 5 -13 1 0 -3 -7 -1 -15 6 -8 7 -15 10 -15 6 0 -4 -13 0 -30 9 -16 9 -30
13 -30 10 0 -3 -16 1 -35 9 -20 9 -38 15 -40 16 -3 0 -6 0 -7 1 -8 2 -36 9
-60 14 -15 3 -39 10 -53 15 -14 5 -25 8 -25 5 0 -2 -18 2 -40 10 -22 8 -40 12
-40 10 0 -3 -10 -1 -23 4 -13 5 -39 12 -58 15 -19 3 -45 8 -59 11 -14 3 -38 8
-55 10 -16 3 -37 8 -45 10 -8 2 -31 6 -50 9 -33 5 -46 8 -110 21 -14 3 -45 7
-70 10 -25 3 -56 7 -70 10 -14 2 -45 7 -70 10 -25 3 -52 8 -60 10 -8 2 -46 7
-84 10 -38 3 -72 8 -75 9 -3 2 -46 7 -94 11 -48 3 -96 8 -105 10 -9 1 -55 6
-102 10 -47 3 -101 8 -120 10 -19 2 -78 7 -130 10 -52 3 -122 8 -155 10 -82 6
-309 15 -489 20 -82 2 -150 6 -152 8 -3 2 3 35 12 73 9 38 18 79 20 92 8 42
13 68 34 167 27 126 29 132 36 175 3 19 10 49 15 65 5 17 11 47 15 69 8 51 12
74 18 94 3 9 7 28 10 42 2 14 23 115 46 225 23 110 44 209 46 219 2 11 13 65
25 120 11 56 23 112 25 126 3 14 7 33 10 42 3 10 7 30 10 45 2 16 18 91 34
168 16 77 31 152 34 168 3 15 7 35 10 45 4 13 69 321 102 487 2 11 6 31 9 45
3 14 10 45 15 70 5 25 12 56 15 70 3 14 8 39 10 55 3 17 8 38 11 47 3 9 7 27
9 40 20 100 25 126 30 148 3 14 8 36 11 50 3 14 12 59 20 100 20 96 16 77 59
280 87 418 106 507 111 535 3 17 10 50 15 75 6 25 24 110 41 190 16 80 31 152
33 160 11 52 69 331 86 415 11 55 23 109 25 120 3 11 8 33 10 49 3 16 12 59
20 95 8 36 17 77 20 91 16 77 47 226 49 235 1 6 5 28 10 50 13 68 15 79 25
125 6 25 13 56 16 70 2 14 7 32 9 40 2 8 7 31 10 50 3 19 15 78 27 130 11 52
22 105 23 117 2 11 6 29 9 40 3 10 8 32 11 48 2 17 7 39 9 50 2 11 18 87 35
170 36 174 38 182 46 215 3 14 8 39 11 55 3 17 14 71 25 120 11 50 22 99 23
110 2 11 6 31 10 45 3 14 8 36 10 50 3 14 14 69 25 124 12 54 23 108 25 120 3
11 28 131 56 266 28 135 53 254 55 265 3 11 10 42 16 68 7 29 8 52 2 58 -8 8
-41 16 -70 18 -9 1 -13 26 -13 89 l0 88 -81 -1 c-44 0 -81 -1 -82 -2z m-23
-262 c3 -5 -1 -11 -9 -14 -9 -4 -12 -1 -8 9 6 16 10 17 17 5z m-969 -10 c3 -5
2 -12 -3 -15 -5 -3 -9 1 -9 9 0 17 3 19 12 6z m795 -856 c0 -2 -9 -3 -19 -2
-11 0 -18 5 -15 9 4 6 34 0 34 -7z m-13 -50 c0 -22 -14 -18 -20 4 -3 13 0 18
7 15 7 -3 13 -11 13 -19z m-59 -50 c-3 -3 -9 2 -12 12 -6 14 -5 15 5 6 7 -7
10 -15 7 -18z m48 4 c0 -8 -2 -18 -5 -24 -3 -5 -6 -14 -6 -19 0 -5 -7 -11 -15
-13 -13 -4 -13 -3 0 6 8 6 11 11 7 11 -5 0 -5 6 0 13 11 17 10 31 -2 40 -6 5
-4 7 5 4 8 -2 15 -10 16 -18z m-35 -22 c-10 -9 -11 -8 -5 6 3 10 9 15 12 12 3
-3 0 -11 -7 -18z m0 -109 c-11 -11 -13 -10 -7 0 4 7 2 21 -5 30 -12 15 -11 15
6 0 16 -15 17 -20 6 -30z m-2487 -1347 c14 -15 15 -21 4 -27 -7 -4 -10 -3 -5
1 4 5 0 17 -10 27 -9 10 -14 18 -11 18 3 0 13 -9 22 -19z m-20 -17 c3 -8 2
-12 -4 -9 -6 3 -10 10 -10 16 0 14 7 11 14 -7z m-17 -29 c0 -8 -4 -12 -9 -9
-5 3 -6 10 -3 15 9 13 12 11 12 -6z m-10 -40 c0 -8 -5 -12 -10 -8 -5 3 -6 -4
-2 -18 7 -23 7 -23 -8 -4 -10 13 -12 22 -5 26 6 4 8 12 4 18 -4 6 -2 9 7 5 7
-2 14 -11 14 -19z m-38 -51 c-6 -8 -17 -14 -23 -14 -6 0 -4 5 4 10 8 5 11 10
7 10 -5 0 -5 5 -2 10 4 6 11 8 16 4 6 -4 6 -11 -2 -20z m-26 -39 c-3 -9 -8
-14 -10 -11 -3 3 -2 9 2 15 9 16 15 13 8 -4z m-26 -37 c-3 -8 -6 -5 -6 6 -1
11 2 17 5 13 3 -3 4 -12 1 -19z m30 -23 c0 -8 -4 -12 -9 -9 -5 3 -6 10 -3 15
9 13 12 11 12 -6z m-32 -5 c-3 -5 -12 -10 -18 -10 -7 0 -6 4 3 10 19 12 23 12
15 0z m1489 -18 c3 -5 -1 -9 -9 -9 -8 0 -12 4 -9 9 3 4 7 8 9 8 2 0 6 -4 9 -8z
m-1518 -22 c0 -12 -4 -16 -9 -11 -5 5 -6 14 -3 20 10 15 12 14 12 -9z m1519
-100 c3 -5 1 -10 -4 -10 -6 0 -11 5 -11 10 0 6 2 10 4 10 3 0 8 -4 11 -10z
m534 -1216 c-6 -8 -15 -12 -18 -8 -3 4 0 9 7 11 6 3 9 10 6 15 -4 7 -2 8 5 4
9 -6 9 -11 0 -22z m-11 -49 c-3 -3 -9 2 -12 12 -6 14 -5 15 5 6 7 -7 10 -15 7
-18z m-12 -44 c0 -16 -3 -17 -14 -9 -12 10 -7 19 13 28 1 0 1 -9 1 -19z
m-2826 -5 c0 -3 -4 -8 -10 -11 -5 -3 -10 -1 -10 4 0 6 5 11 10 11 6 0 10 -2
10 -4z m-10 -42 c0 -8 -19 -13 -24 -6 -3 5 1 9 9 9 8 0 15 -2 15 -3z m-33 -29
c0 -8 -4 -12 -9 -9 -4 3 -8 9 -8 15 0 5 4 9 8 9 5 0 9 -7 9 -15z m13 -51 c0
-8 -19 -13 -24 -6 -3 5 1 9 9 9 8 0 15 -2 15 -3z m-776 -1322 c2 -4 -5 -9 -17
-9 -17 -2 -19 0 -7 7 18 12 18 12 24 2z m3146 -896 c0 -2 -7 -7 -16 -10 -8 -3
-12 -2 -9 4 6 10 25 14 25 6z m-1845 -1054 c-3 -3 -11 0 -18 7 -9 10 -8 11 6
5 10 -3 15 -9 12 -12z m-55 -34 c0 -6 -3 -8 -7 -5 -3 4 -13 1 -22 -6 -14 -11
-14 -10 -2 6 15 20 31 22 31 5z m35 -8 c3 -6 -1 -7 -9 -4 -18 7 -21 14 -7 14
6 0 13 -4 16 -10z m-22 -30 c-3 -11 -7 -20 -9 -20 -2 0 -4 9 -4 20 0 11 4 20
9 20 5 0 7 -9 4 -20z m-73 6 c0 -3 -4 -8 -10 -11 -5 -3 -10 -1 -10 4 0 6 5 11
10 11 6 0 10 -2 10 -4z m35 -14 c-3 -3 -11 0 -18 7 -9 10 -8 11 6 5 10 -3 15
-9 12 -12z"/>
</g>
</svg>
