<?xml version="1.0" standalone="no"?>
<!DOCTYPE svg PUBLIC "-//W3C//DTD SVG 20010904//EN"
 "http://www.w3.org/TR/2001/REC-SVG-20010904/DTD/svg10.dtd">
<svg version="1.0" xmlns="http://www.w3.org/2000/svg"
 width="1000.000000pt" height="1000.000000pt" viewBox="0 0 1000.000000 1000.000000"
 preserveAspectRatio="xMidYMid meet">
<metadata>
Created by potrace 1.14, written by Peter Selinger 2001-2017
</metadata>
<g transform="translate(0.000000,1000.000000) scale(0.100000,-0.100000)"
fill="#000000" stroke="none">
<path d="M4901 9793 c-12 -27 -13 -27 -27 -8 -15 20 -15 20 -49 0 -19 -11
-943 -578 -2054 -1260 -1573 -965 -2019 -1243 -2013 -1255 4 -8 6 -652 5
-1430 -1 -778 -1 -1822 -1 -2319 l0 -904 -28 -60 c-23 -47 -26 -61 -15 -65 7
-2 21 -12 31 -22 9 -9 28 -20 41 -23 21 -6 1978 -1036 2134 -1124 33 -18 84
-45 113 -58 29 -14 476 -249 994 -521 690 -364 943 -493 951 -485 17 17 73 13
92 -6 16 -16 20 -16 52 3 19 10 924 566 2011 1234 1087 668 1995 1224 2018
1234 l41 20 7 2330 c5 1818 9 2332 19 2338 7 4 16 9 22 11 5 2 -1 20 -13 41
-12 20 -22 49 -22 64 0 31 -1 31 -131 100 -52 27 -1004 529 -2116 1116 -1112
586 -2028 1069 -2036 1071 -8 4 -18 -5 -26 -22z m202 -294 c105 -55 1009 -533
2011 -1061 1002 -528 1822 -961 1824 -963 3 -3 -30 -23 -623 -387 -192 -119
-999 -614 -1793 -1102 -794 -487 -1450 -886 -1458 -886 -18 0 -4024 2111
-4024 2120 0 4 96 65 212 137 117 72 764 469 1438 883 674 414 1365 839 1535
943 171 105 391 241 490 303 99 61 184 113 189 113 6 1 95 -44 199 -100z
m-4113 -2488 c0 -6 -4 -13 -10 -16 -5 -3 -10 1 -10 9 0 9 5 16 10 16 6 0 10
-4 10 -9z m2448 -1288 c63 -35 81 -50 40 -34 -55 22 -308 152 -313 161 -4 6
-29 22 -56 35 -27 14 -49 28 -49 31 0 5 245 -120 378 -193z m-150 -2525 c-3
-7 -15 -14 -29 -16 -23 -2 -23 -2 -5 13 24 18 39 20 34 3z m5712 -328 c0 -5
-5 -10 -11 -10 -5 0 -7 5 -4 10 3 6 8 10 11 10 2 0 4 -4 4 -10z"/>
</g>
</svg>
